{"title":"QI_XL_O_S15E06 Odds and Ends. revittony","magnet":"magnet:?xt=urn:btih:ed9fa63622e231889c808027d925d0c43738d776&dn=QI_XL_O_S15E06+Odds+and+Ends.+revittony&tr=udp%3A%2F%2Ftracker.leechers-paradise.org%3A6969&tr=udp%3A%2F%2Fzer0day.ch%3A1337&tr=udp%3A%2F%2Fopen.demonii.com%3A1337&tr=udp%3A%2F%2Ftracker.coppersurfer.tk%3A6969&tr=udp%3A%2F%2Fexodus.desync.com%3A6969","uploader":"revittony1","categoryP":"video","categoryS":"tv_shows","size":"799189161","seeders":"2","leechers":"4","description":"Format : MPEG-4 \r\nFormat profile : Base Media \r\nCodec ID : isom (isom/iso2/avc1/mp41) \r\nOverall bit rate mode : Variable \r\nOverall bit rate : 2 390 kb/s \r\n\r\nVideo \r\nID : 1 \r\nFormat : AVC \r\nFormat/Info : Advanced Video Codec \r\nFormat profile : <a href=\"/cdn-cgi/l/email-protection\" class=\"__cf_email__\" data-cfemail=\"4008292728000c746e71\">[email&#xA0;protected]</a> \r\nFormat settings : CABAC / 2 Ref Frames \r\nFormat settings, CABAC : Yes \r\nFormat settings, RefFrames : 2 frames \r\nCodec ID : avc1 \r\nCodec ID/Info : Advanced Video Coding \r\nDuration : 44 min 24 s \r\nBit rate mode : Variable \r\nBit rate : 2 291 kb/s \r\nMaximum bit rate : 3 500 kb/s \r\nWidth : 1 280 pixels \r\nHeight : 720 pixels \r\nDisplay aspect ratio : 16:9 \r\nFrame rate mode : Constant \r\nFrame rate : 25.000 FPS \r\nColor space : YUV \r\nChroma subsampling : 4:2:0 \r\nBit depth : 8 bits \r\nScan type : Progressive \r\nBits/(Pixel*Frame) : 0.099 \r\nStream size : 728 MiB (96%) \r\n\r\nAudio \r\nID : 2 \r\nFormat : AAC \r\nFormat/Info : Advanced Audio Codec \r\nFormat profile : LC \r\nCodec ID : mp4a-40-2 \r\nDuration : 44 min 24 s \r\nBit rate mode : Constant \r\nBit rate : 93.4 kb/s \r\nChannel(s) : 2 channels \r\nChannel positions : Front: L R \r\nSampling rate : 48.0 kHz \r\nFrame rate : 46.875 FPS (1024 SPF) \r\nCompression mode : Lossy \r\nStream size : 29.7 MiB (4%) \r\nDefault : Yes \r\nAlternate group : 1","last_updated":"2017-12-03T12:01:53.231Z","parsed":{"xt":"urn:btih:ed9fa63622e231889c808027d925d0c43738d776","dn":"QI_XL_O_S15E06 Odds and Ends. revittony","tr":["udp://exodus.desync.com:6969","udp://open.demonii.com:1337","udp://tracker.coppersurfer.tk:6969","udp://tracker.leechers-paradise.org:6969","udp://zer0day.ch:1337"],"infoHash":"ed9fa63622e231889c808027d925d0c43738d776","infoHashBuffer":{"type":"Buffer","data":[237,159,166,54,34,226,49,136,156,128,128,39,217,37,208,196,55,56,215,118]},"name":"QI_XL_O_S15E06 Odds and Ends. revittony","announce":["udp://exodus.desync.com:6969","udp://open.demonii.com:1337","udp://tracker.coppersurfer.tk:6969","udp://tracker.leechers-paradise.org:6969","udp://zer0day.ch:1337"],"urlList":[]}}